<?xml version="1.0" encoding="UTF-8" standalone="no"?>
<svg
   width="500"
   height="500"
   viewBox="0 0 144 144"
   version="1.1"
   id="svg3"
   role="img"
   aria-label="Oblidog icon"
   xmlns="http://www.w3.org/2000/svg"
   xmlns:svg="http://www.w3.org/2000/svg"
   xmlns:rdf="http://www.w3.org/1999/02/22-rdf-syntax-ns#"
   xmlns:cc="http://creativecommons.org/ns#"
   xmlns:dc="http://purl.org/dc/elements/1.1/">
  <defs
     id="defs3" />
  <title
     id="title1">Oblidog icon</title>
  <path
     fill="#009688"
     d="M72 3 L137 27 V67 C137 103 112 128 72 141 C32 128 7 103 7 67 V27 Z"
     id="path1" />
  <g
     id="g4"
     transform="matrix(1.1658652,0,0,1.1658652,-12.288807,-22.239091)">
    <path
       fill="#ffffff"
       d="M 40,103 33,94 45,72 57,49 67,27 l 5,31 16,5 q 8,2 10,10 l 23,7 q -3,16 -15,21 -5,2 -15,2 -10,1 -14,9 -3,7 -2,17 l -9,3 Q 54,124 40,103 Z"
       id="path2" />
    <g
       id="g3">
      <path
         fill="#009688"
         d="m 78,72 q 8,0 14,4 -5,6 -10,6 -3,-4 -4,-10 z"
         id="path3" />
    </g>
  </g>
  <metadata
     id="metadata4">
    <rdf:RDF>
      <cc:Work
         rdf:about="">
        <dc:title>Oblidog icon</dc:title>
      </cc:Work>
    </rdf:RDF>
  </metadata>
</svg>
