<svg xmlns="http://www.w3.org/2000/svg" viewBox="0 0 40 40" fill="none"><title>Northstar demo logo</title><path d="M17.343 2.657 20 0l20 20-20 20-2.657-2.657L34.686 20 17.343 2.657Z" fill="#D41C1C"/><path d="m13.874 6.126 2.657-2.657L33.063 20 16.53 36.531l-2.657-2.657L27.75 20 13.874 6.126Z" fill="#D41C1C"/><path d="M0 20 13.063 6.937 26.126 20 13.063 33.063l-2.657-2.657L20.81 20l-7.749-7.749L2.657 22.657 0 20Z" fill="#D41C1C"/><path d="m13.063 13.874-2.657 2.657L13.874 20l-6.937 6.937 2.657 2.657L19.189 20l-6.126-6.126Z" fill="#D41C1C"/><path d="m6.126 26.126-2.657-2.657 6.097-6.098 2.658 2.657-6.098 6.098Z" fill="#D41C1C"/></svg>
